<?xml version="1.0" encoding="UTF-8" standalone="no"?>
<!DOCTYPE svg PUBLIC "-//W3C//DTD SVG 1.1//EN"
 "http://www.w3.org/Graphics/SVG/1.1/DTD/svg11.dtd">
<!-- Generated by graphviz version 2.40.1 (20161225.0304)
 -->
<!-- Title: room_member Pages: 1 -->
<svg width="729pt" height="562pt"
 viewBox="0.00 0.00 729.00 562.00" xmlns="http://www.w3.org/2000/svg" xmlns:xlink="http://www.w3.org/1999/xlink">
<g id="graph0" class="graph" transform="scale(1 1) rotate(0) translate(4 558)">
<title>room_member</title>
<polygon fill="#ffffff" stroke="transparent" points="-4,4 -4,-558 725,-558 725,4 -4,4"/>
<!-- room_member -->
<g id="node1" class="node">
<title>room_member</title>
<polygon fill="#efefef" stroke="transparent" points="241,-472.5 241,-507.5 469,-507.5 469,-472.5 241,-472.5"/>
<polygon fill="none" stroke="#000000" points="241,-472.5 241,-507.5 469,-507.5 469,-472.5 241,-472.5"/>
<text text-anchor="start" x="247.874" y="-485.3" font-family="Arial Bold" font-size="18.00" fill="#000000">room_member</text>
<text text-anchor="start" x="364.8722" y="-485.3" font-family="Arial" font-size="14.00" fill="#000000"> </text>
<text text-anchor="start" x="368.7628" y="-485.3" font-family="Arial" font-size="14.00" fill="#666666">[BASE TABLE]</text>
<polygon fill="none" stroke="#000000" points="241,-442.5 241,-472.5 469,-472.5 469,-442.5 241,-442.5"/>
<text text-anchor="start" x="248" y="-453.9" font-family="Arial" font-size="14.00" fill="#000000">room_id </text>
<text text-anchor="start" x="302.4488" y="-453.9" font-family="Arial" font-size="14.00" fill="#666666">[bigint]</text>
<polygon fill="none" stroke="#000000" points="241,-412.5 241,-442.5 469,-442.5 469,-412.5 241,-412.5"/>
<text text-anchor="start" x="248" y="-423.9" font-family="Arial" font-size="14.00" fill="#000000">member_id </text>
<text text-anchor="start" x="321.892" y="-423.9" font-family="Arial" font-size="14.00" fill="#666666">[bigint]</text>
<polygon fill="none" stroke="#000000" points="241,-382.5 241,-412.5 469,-412.5 469,-382.5 241,-382.5"/>
<text text-anchor="start" x="248" y="-393.9" font-family="Arial" font-size="14.00" fill="#000000">live_difficulty </text>
<text text-anchor="start" x="331.2258" y="-393.9" font-family="Arial" font-size="14.00" fill="#666666">[tinyint]</text>
<polygon fill="none" stroke="#000000" points="241,-352.5 241,-382.5 469,-382.5 469,-352.5 241,-352.5"/>
<text text-anchor="start" x="248" y="-363.9" font-family="Arial" font-size="14.00" fill="#000000">judge_count_list </text>
<text text-anchor="start" x="353.035" y="-363.9" font-family="Arial" font-size="14.00" fill="#666666">[varchar(50)]</text>
<polygon fill="none" stroke="#000000" points="241,-322.5 241,-352.5 469,-352.5 469,-322.5 241,-322.5"/>
<text text-anchor="start" x="248" y="-333.9" font-family="Arial" font-size="14.00" fill="#000000">score </text>
<text text-anchor="start" x="286.1164" y="-333.9" font-family="Arial" font-size="14.00" fill="#666666">[int]</text>
<polygon fill="none" stroke="#000000" stroke-width="3" points="239.5,-321.5 239.5,-509.5 470.5,-509.5 470.5,-321.5 239.5,-321.5"/>
</g>
<!-- room -->
<g id="node2" class="node">
<title>room</title>
<polygon fill="#efefef" stroke="transparent" points="138,-162.5 138,-197.5 309,-197.5 309,-162.5 138,-162.5"/>
<polygon fill="none" stroke="#000000" points="138,-162.5 138,-197.5 309,-197.5 309,-162.5 138,-162.5"/>
<text text-anchor="start" x="154.3747" y="-175.3" font-family="Arial Bold" font-size="18.00" fill="#000000">room</text>
<text text-anchor="start" x="195.3715" y="-175.3" font-family="Arial" font-size="14.00" fill="#000000"> </text>
<text text-anchor="start" x="199.2621" y="-175.3" font-family="Arial" font-size="14.00" fill="#666666">[BASE TABLE]</text>
<polygon fill="none" stroke="#000000" points="138,-132.5 138,-162.5 309,-162.5 309,-132.5 138,-132.5"/>
<text text-anchor="start" x="145" y="-143.9" font-family="Arial" font-size="14.00" fill="#000000">id </text>
<text text-anchor="start" x="159.7798" y="-143.9" font-family="Arial" font-size="14.00" fill="#666666">[bigint]</text>
<polygon fill="none" stroke="#000000" points="138,-102.5 138,-132.5 309,-132.5 309,-102.5 138,-102.5"/>
<text text-anchor="start" x="145" y="-113.9" font-family="Arial" font-size="14.00" fill="#000000">live_id </text>
<text text-anchor="start" x="188.5582" y="-113.9" font-family="Arial" font-size="14.00" fill="#666666">[int]</text>
<polygon fill="none" stroke="#000000" points="138,-72.5 138,-102.5 309,-102.5 309,-72.5 138,-72.5"/>
<text text-anchor="start" x="145" y="-83.9" font-family="Arial" font-size="14.00" fill="#000000">owner_id </text>
<text text-anchor="start" x="205.6774" y="-83.9" font-family="Arial" font-size="14.00" fill="#666666">[bigint]</text>
<polygon fill="none" stroke="#000000" points="138,-42.5 138,-72.5 309,-72.5 309,-42.5 138,-42.5"/>
<text text-anchor="start" x="144.5421" y="-53.9" font-family="Arial" font-size="14.00" fill="#000000">wait_room_status </text>
<text text-anchor="start" x="258.1171" y="-53.9" font-family="Arial" font-size="14.00" fill="#666666">[tinyint]</text>
</g>
<!-- room_member&#45;&gt;room -->
<g id="edge1" class="edge">
<title>room_member:room_id&#45;&gt;room:id</title>
<path fill="none" stroke="#000000" d="M230.8991,-456.8374C164.2727,-447.5447 201.4797,-342.6395 241,-277 258.6386,-247.7039 291.3614,-270.2961 309,-241 330.4346,-205.3991 350.5556,-147.5 309,-147.5"/>
<polygon fill="#000000" stroke="#000000" points="231.0214,-456.8453 240.7054,-461.9903 236.0107,-457.1727 241,-457.5 241,-457.5 241,-457.5 236.0107,-457.1727 241.2946,-453.0097 231.0214,-456.8453 231.0214,-456.8453"/>
<text text-anchor="start" x="7.116" y="-467.5" font-family="Arial" font-size="10.00" fill="#000000">FOREIGN KEY (room_id) REFERENCES room (id)</text>
</g>
<!-- user -->
<g id="node3" class="node">
<title>user</title>
<polygon fill="#efefef" stroke="transparent" points="413,-162.5 413,-197.5 559,-197.5 559,-162.5 413,-162.5"/>
<polygon fill="none" stroke="#000000" points="413,-162.5 413,-197.5 559,-197.5 559,-162.5 413,-162.5"/>
<text text-anchor="start" x="419.8708" y="-175.3" font-family="Arial Bold" font-size="18.00" fill="#000000">user</text>
<text text-anchor="start" x="454.8754" y="-175.3" font-family="Arial" font-size="14.00" fill="#000000"> </text>
<text text-anchor="start" x="458.766" y="-175.3" font-family="Arial" font-size="14.00" fill="#666666">[BASE TABLE]</text>
<polygon fill="none" stroke="#000000" points="413,-132.5 413,-162.5 559,-162.5 559,-132.5 413,-132.5"/>
<text text-anchor="start" x="420" y="-143.9" font-family="Arial" font-size="14.00" fill="#000000">id </text>
<text text-anchor="start" x="434.7798" y="-143.9" font-family="Arial" font-size="14.00" fill="#666666">[bigint]</text>
<polygon fill="none" stroke="#000000" points="413,-102.5 413,-132.5 559,-132.5 559,-102.5 413,-102.5"/>
<text text-anchor="start" x="420" y="-113.9" font-family="Arial" font-size="14.00" fill="#000000">name </text>
<text text-anchor="start" x="458.899" y="-113.9" font-family="Arial" font-size="14.00" fill="#666666">[varchar(255)]</text>
<polygon fill="none" stroke="#000000" points="413,-72.5 413,-102.5 559,-102.5 559,-72.5 413,-72.5"/>
<text text-anchor="start" x="420" y="-83.9" font-family="Arial" font-size="14.00" fill="#000000">token </text>
<text text-anchor="start" x="458.129" y="-83.9" font-family="Arial" font-size="14.00" fill="#666666">[varchar(255)]</text>
<polygon fill="none" stroke="#000000" points="413,-42.5 413,-72.5 559,-72.5 559,-42.5 413,-42.5"/>
<text text-anchor="start" x="420" y="-53.9" font-family="Arial" font-size="14.00" fill="#000000">leader_card_id </text>
<text text-anchor="start" x="516.4684" y="-53.9" font-family="Arial" font-size="14.00" fill="#666666">[int]</text>
</g>
<!-- room_member&#45;&gt;user -->
<g id="edge2" class="edge">
<title>room_member:member_id&#45;&gt;user:id</title>
<path fill="none" stroke="#000000" d="M479.0074,-427.442C779.0344,-423.8905 422.5498,-258.492 413,-241 393.0871,-204.5262 371.4444,-147.5 413,-147.5"/>
<polygon fill="#000000" stroke="#000000" points="478.9998,-427.4419 468.9739,-423.0001 473.9999,-427.4709 469,-427.5 469,-427.5 469,-427.5 473.9999,-427.4709 469.0261,-431.9999 478.9998,-427.4419 478.9998,-427.4419"/>
<text text-anchor="start" x="475.8365" y="-437.5" font-family="Arial" font-size="10.00" fill="#000000">FOREIGN KEY (member_id) REFERENCES user (id)</text>
</g>
</g>
</svg>
