<?xml version="1.0" encoding="UTF-8" standalone="no"?>
<!DOCTYPE svg PUBLIC "-//W3C//DTD SVG 1.1//EN"
 "http://www.w3.org/Graphics/SVG/1.1/DTD/svg11.dtd">
<!-- Generated by graphviz version 2.40.1 (20161225.0304)
 -->
<!-- Title: room Pages: 1 -->
<svg width="690pt" height="839pt"
 viewBox="0.00 0.00 690.00 839.00" xmlns="http://www.w3.org/2000/svg" xmlns:xlink="http://www.w3.org/1999/xlink">
<g id="graph0" class="graph" transform="scale(1 1) rotate(0) translate(4 835)">
<title>room</title>
<polygon fill="#ffffff" stroke="transparent" points="-4,4 -4,-835 686,-835 686,4 -4,4"/>
<!-- room -->
<g id="node1" class="node">
<title>room</title>
<polygon fill="#efefef" stroke="transparent" points="269,-442.5 269,-477.5 440,-477.5 440,-442.5 269,-442.5"/>
<polygon fill="none" stroke="#000000" points="269,-442.5 269,-477.5 440,-477.5 440,-442.5 269,-442.5"/>
<text text-anchor="start" x="285.3747" y="-455.3" font-family="Arial Bold" font-size="18.00" fill="#000000">room</text>
<text text-anchor="start" x="326.3715" y="-455.3" font-family="Arial" font-size="14.00" fill="#000000"> </text>
<text text-anchor="start" x="330.2621" y="-455.3" font-family="Arial" font-size="14.00" fill="#666666">[BASE TABLE]</text>
<polygon fill="none" stroke="#000000" points="269,-412.5 269,-442.5 440,-442.5 440,-412.5 269,-412.5"/>
<text text-anchor="start" x="276" y="-423.9" font-family="Arial" font-size="14.00" fill="#000000">id </text>
<text text-anchor="start" x="290.7798" y="-423.9" font-family="Arial" font-size="14.00" fill="#666666">[bigint]</text>
<polygon fill="none" stroke="#000000" points="269,-382.5 269,-412.5 440,-412.5 440,-382.5 269,-382.5"/>
<text text-anchor="start" x="276" y="-393.9" font-family="Arial" font-size="14.00" fill="#000000">live_id </text>
<text text-anchor="start" x="319.5582" y="-393.9" font-family="Arial" font-size="14.00" fill="#666666">[int]</text>
<polygon fill="none" stroke="#000000" points="269,-352.5 269,-382.5 440,-382.5 440,-352.5 269,-352.5"/>
<text text-anchor="start" x="276" y="-363.9" font-family="Arial" font-size="14.00" fill="#000000">owner_id </text>
<text text-anchor="start" x="336.6774" y="-363.9" font-family="Arial" font-size="14.00" fill="#666666">[bigint]</text>
<polygon fill="none" stroke="#000000" points="269,-322.5 269,-352.5 440,-352.5 440,-322.5 269,-322.5"/>
<text text-anchor="start" x="275.5421" y="-333.9" font-family="Arial" font-size="14.00" fill="#000000">wait_room_status </text>
<text text-anchor="start" x="389.1171" y="-333.9" font-family="Arial" font-size="14.00" fill="#666666">[tinyint]</text>
<polygon fill="none" stroke="#000000" stroke-width="3" points="267,-321.5 267,-479.5 441,-479.5 441,-321.5 267,-321.5"/>
</g>
<!-- user -->
<g id="node3" class="node">
<title>user</title>
<polygon fill="#efefef" stroke="transparent" points="282,-162.5 282,-197.5 428,-197.5 428,-162.5 282,-162.5"/>
<polygon fill="none" stroke="#000000" points="282,-162.5 282,-197.5 428,-197.5 428,-162.5 282,-162.5"/>
<text text-anchor="start" x="288.8708" y="-175.3" font-family="Arial Bold" font-size="18.00" fill="#000000">user</text>
<text text-anchor="start" x="323.8754" y="-175.3" font-family="Arial" font-size="14.00" fill="#000000"> </text>
<text text-anchor="start" x="327.766" y="-175.3" font-family="Arial" font-size="14.00" fill="#666666">[BASE TABLE]</text>
<polygon fill="none" stroke="#000000" points="282,-132.5 282,-162.5 428,-162.5 428,-132.5 282,-132.5"/>
<text text-anchor="start" x="289" y="-143.9" font-family="Arial" font-size="14.00" fill="#000000">id </text>
<text text-anchor="start" x="303.7798" y="-143.9" font-family="Arial" font-size="14.00" fill="#666666">[bigint]</text>
<polygon fill="none" stroke="#000000" points="282,-102.5 282,-132.5 428,-132.5 428,-102.5 282,-102.5"/>
<text text-anchor="start" x="289" y="-113.9" font-family="Arial" font-size="14.00" fill="#000000">name </text>
<text text-anchor="start" x="327.899" y="-113.9" font-family="Arial" font-size="14.00" fill="#666666">[varchar(255)]</text>
<polygon fill="none" stroke="#000000" points="282,-72.5 282,-102.5 428,-102.5 428,-72.5 282,-72.5"/>
<text text-anchor="start" x="289" y="-83.9" font-family="Arial" font-size="14.00" fill="#000000">token </text>
<text text-anchor="start" x="327.129" y="-83.9" font-family="Arial" font-size="14.00" fill="#666666">[varchar(255)]</text>
<polygon fill="none" stroke="#000000" points="282,-42.5 282,-72.5 428,-72.5 428,-42.5 282,-42.5"/>
<text text-anchor="start" x="289" y="-53.9" font-family="Arial" font-size="14.00" fill="#000000">leader_card_id </text>
<text text-anchor="start" x="385.4684" y="-53.9" font-family="Arial" font-size="14.00" fill="#666666">[int]</text>
</g>
<!-- room&#45;&gt;user -->
<g id="edge2" class="edge">
<title>room:owner_id&#45;&gt;user:id</title>
<path fill="none" stroke="#000000" d="M449.8902,-366.0142C477.2964,-356.6694 462.7324,-305.4946 440,-277 395.0845,-220.6994 326.9155,-297.3006 282,-241 256.0844,-208.5154 240.4444,-147.5 282,-147.5"/>
<polygon fill="#000000" stroke="#000000" points="449.889,-366.0143 439.3314,-363.0499 444.9445,-366.7572 440,-367.5 440,-367.5 440,-367.5 444.9445,-366.7572 440.6686,-371.9501 449.889,-366.0143 449.889,-366.0143"/>
<text text-anchor="start" x="446.556" y="-377.5" font-family="Arial" font-size="10.00" fill="#000000">FOREIGN KEY (owner_id) REFERENCES user (id)</text>
</g>
<!-- room_member -->
<g id="node2" class="node">
<title>room_member</title>
<polygon fill="#efefef" stroke="transparent" points="241,-752.5 241,-787.5 469,-787.5 469,-752.5 241,-752.5"/>
<polygon fill="none" stroke="#000000" points="241,-752.5 241,-787.5 469,-787.5 469,-752.5 241,-752.5"/>
<text text-anchor="start" x="247.874" y="-765.3" font-family="Arial Bold" font-size="18.00" fill="#000000">room_member</text>
<text text-anchor="start" x="364.8722" y="-765.3" font-family="Arial" font-size="14.00" fill="#000000"> </text>
<text text-anchor="start" x="368.7628" y="-765.3" font-family="Arial" font-size="14.00" fill="#666666">[BASE TABLE]</text>
<polygon fill="none" stroke="#000000" points="241,-722.5 241,-752.5 469,-752.5 469,-722.5 241,-722.5"/>
<text text-anchor="start" x="248" y="-733.9" font-family="Arial" font-size="14.00" fill="#000000">room_id </text>
<text text-anchor="start" x="302.4488" y="-733.9" font-family="Arial" font-size="14.00" fill="#666666">[bigint]</text>
<polygon fill="none" stroke="#000000" points="241,-692.5 241,-722.5 469,-722.5 469,-692.5 241,-692.5"/>
<text text-anchor="start" x="248" y="-703.9" font-family="Arial" font-size="14.00" fill="#000000">member_id </text>
<text text-anchor="start" x="321.892" y="-703.9" font-family="Arial" font-size="14.00" fill="#666666">[bigint]</text>
<polygon fill="none" stroke="#000000" points="241,-662.5 241,-692.5 469,-692.5 469,-662.5 241,-662.5"/>
<text text-anchor="start" x="248" y="-673.9" font-family="Arial" font-size="14.00" fill="#000000">live_difficulty </text>
<text text-anchor="start" x="331.2258" y="-673.9" font-family="Arial" font-size="14.00" fill="#666666">[tinyint]</text>
<polygon fill="none" stroke="#000000" points="241,-632.5 241,-662.5 469,-662.5 469,-632.5 241,-632.5"/>
<text text-anchor="start" x="248" y="-643.9" font-family="Arial" font-size="14.00" fill="#000000">judge_count_list </text>
<text text-anchor="start" x="353.035" y="-643.9" font-family="Arial" font-size="14.00" fill="#666666">[varchar(50)]</text>
<polygon fill="none" stroke="#000000" points="241,-602.5 241,-632.5 469,-632.5 469,-602.5 241,-602.5"/>
<text text-anchor="start" x="248" y="-613.9" font-family="Arial" font-size="14.00" fill="#000000">score </text>
<text text-anchor="start" x="286.1164" y="-613.9" font-family="Arial" font-size="14.00" fill="#666666">[int]</text>
</g>
<!-- room_member&#45;&gt;room -->
<g id="edge1" class="edge">
<title>room_member:room_id&#45;&gt;room:id</title>
<path fill="none" stroke="#000000" d="M231.0098,-736.8077C164.6999,-727.1061 192.6973,-617.8249 241,-560 298.6209,-491.0199 382.3791,-592.9801 440,-524 467.4955,-491.0841 482.8889,-427.5 440,-427.5"/>
<polygon fill="#000000" stroke="#000000" points="231.0239,-736.8086 240.6889,-741.9892 236.012,-737.1543 241,-737.5 241,-737.5 241,-737.5 236.012,-737.1543 241.3111,-733.0108 231.0239,-736.8086 231.0239,-736.8086"/>
<text text-anchor="start" x="7.116" y="-747.5" font-family="Arial" font-size="10.00" fill="#000000">FOREIGN KEY (room_id) REFERENCES room (id)</text>
</g>
</g>
</svg>
