<?xml version="1.0" encoding="UTF-8" standalone="no"?>
<!DOCTYPE svg PUBLIC "-//W3C//DTD SVG 1.1//EN"
 "http://www.w3.org/Graphics/SVG/1.1/DTD/svg11.dtd">
<!-- Generated by graphviz version 2.40.1 (20161225.0304)
 -->
<!-- Title: webapp Pages: 1 -->
<svg width="729pt" height="833pt"
 viewBox="0.00 0.00 729.00 833.00" xmlns="http://www.w3.org/2000/svg" xmlns:xlink="http://www.w3.org/1999/xlink">
<g id="graph0" class="graph" transform="scale(1 1) rotate(0) translate(4 829)">
<title>webapp</title>
<polygon fill="#ffffff" stroke="transparent" points="-4,4 -4,-829 725,-829 725,4 -4,4"/>
<!-- room -->
<g id="node1" class="node">
<title>room</title>
<polygon fill="#efefef" stroke="transparent" points="191,-439.5 191,-474.5 362,-474.5 362,-439.5 191,-439.5"/>
<polygon fill="none" stroke="#000000" points="191,-439.5 191,-474.5 362,-474.5 362,-439.5 191,-439.5"/>
<text text-anchor="start" x="207.3747" y="-452.3" font-family="Arial Bold" font-size="18.00" fill="#000000">room</text>
<text text-anchor="start" x="248.3715" y="-452.3" font-family="Arial" font-size="14.00" fill="#000000"> </text>
<text text-anchor="start" x="252.2621" y="-452.3" font-family="Arial" font-size="14.00" fill="#666666">[BASE TABLE]</text>
<polygon fill="none" stroke="#000000" points="191,-409.5 191,-439.5 362,-439.5 362,-409.5 191,-409.5"/>
<text text-anchor="start" x="198" y="-420.9" font-family="Arial" font-size="14.00" fill="#000000">id </text>
<text text-anchor="start" x="212.7798" y="-420.9" font-family="Arial" font-size="14.00" fill="#666666">[bigint]</text>
<polygon fill="none" stroke="#000000" points="191,-379.5 191,-409.5 362,-409.5 362,-379.5 191,-379.5"/>
<text text-anchor="start" x="198" y="-390.9" font-family="Arial" font-size="14.00" fill="#000000">live_id </text>
<text text-anchor="start" x="241.5582" y="-390.9" font-family="Arial" font-size="14.00" fill="#666666">[int]</text>
<polygon fill="none" stroke="#000000" points="191,-349.5 191,-379.5 362,-379.5 362,-349.5 191,-349.5"/>
<text text-anchor="start" x="198" y="-360.9" font-family="Arial" font-size="14.00" fill="#000000">owner_id </text>
<text text-anchor="start" x="258.6774" y="-360.9" font-family="Arial" font-size="14.00" fill="#666666">[bigint]</text>
<polygon fill="none" stroke="#000000" points="191,-319.5 191,-349.5 362,-349.5 362,-319.5 191,-319.5"/>
<text text-anchor="start" x="197.5421" y="-330.9" font-family="Arial" font-size="14.00" fill="#000000">wait_room_status </text>
<text text-anchor="start" x="311.1171" y="-330.9" font-family="Arial" font-size="14.00" fill="#666666">[tinyint]</text>
</g>
<!-- user -->
<g id="node3" class="node">
<title>user</title>
<polygon fill="#efefef" stroke="transparent" points="282,-162.5 282,-197.5 428,-197.5 428,-162.5 282,-162.5"/>
<polygon fill="none" stroke="#000000" points="282,-162.5 282,-197.5 428,-197.5 428,-162.5 282,-162.5"/>
<text text-anchor="start" x="288.8708" y="-175.3" font-family="Arial Bold" font-size="18.00" fill="#000000">user</text>
<text text-anchor="start" x="323.8754" y="-175.3" font-family="Arial" font-size="14.00" fill="#000000"> </text>
<text text-anchor="start" x="327.766" y="-175.3" font-family="Arial" font-size="14.00" fill="#666666">[BASE TABLE]</text>
<polygon fill="none" stroke="#000000" points="282,-132.5 282,-162.5 428,-162.5 428,-132.5 282,-132.5"/>
<text text-anchor="start" x="289" y="-143.9" font-family="Arial" font-size="14.00" fill="#000000">id </text>
<text text-anchor="start" x="303.7798" y="-143.9" font-family="Arial" font-size="14.00" fill="#666666">[bigint]</text>
<polygon fill="none" stroke="#000000" points="282,-102.5 282,-132.5 428,-132.5 428,-102.5 282,-102.5"/>
<text text-anchor="start" x="289" y="-113.9" font-family="Arial" font-size="14.00" fill="#000000">name </text>
<text text-anchor="start" x="327.899" y="-113.9" font-family="Arial" font-size="14.00" fill="#666666">[varchar(255)]</text>
<polygon fill="none" stroke="#000000" points="282,-72.5 282,-102.5 428,-102.5 428,-72.5 282,-72.5"/>
<text text-anchor="start" x="289" y="-83.9" font-family="Arial" font-size="14.00" fill="#000000">token </text>
<text text-anchor="start" x="327.129" y="-83.9" font-family="Arial" font-size="14.00" fill="#666666">[varchar(255)]</text>
<polygon fill="none" stroke="#000000" points="282,-42.5 282,-72.5 428,-72.5 428,-42.5 282,-42.5"/>
<text text-anchor="start" x="289" y="-53.9" font-family="Arial" font-size="14.00" fill="#000000">leader_card_id </text>
<text text-anchor="start" x="385.4684" y="-53.9" font-family="Arial" font-size="14.00" fill="#666666">[int]</text>
</g>
<!-- room&#45;&gt;user -->
<g id="edge1" class="edge">
<title>room:owner_id&#45;&gt;user:id</title>
<path fill="none" stroke="#000000" d="M372.1514,-362.8836C397.2442,-353.5889 380.971,-306.3403 362,-277 340.8297,-244.2583 303.1703,-273.7417 282,-241 259.4365,-206.1037 240.4444,-147.5 282,-147.5"/>
<polygon fill="#000000" stroke="#000000" points="371.8756,-362.9274 361.2923,-360.056 366.9378,-363.7137 362,-364.5 362,-364.5 362,-364.5 366.9378,-363.7137 362.7077,-368.944 371.8756,-362.9274 371.8756,-362.9274"/>
<text text-anchor="start" x="368.556" y="-374.5" font-family="Arial" font-size="10.00" fill="#000000">FOREIGN KEY (owner_id) REFERENCES user (id)</text>
</g>
<!-- room_member -->
<g id="node2" class="node">
<title>room_member</title>
<polygon fill="#efefef" stroke="transparent" points="241,-746.5 241,-781.5 469,-781.5 469,-746.5 241,-746.5"/>
<polygon fill="none" stroke="#000000" points="241,-746.5 241,-781.5 469,-781.5 469,-746.5 241,-746.5"/>
<text text-anchor="start" x="247.874" y="-759.3" font-family="Arial Bold" font-size="18.00" fill="#000000">room_member</text>
<text text-anchor="start" x="364.8722" y="-759.3" font-family="Arial" font-size="14.00" fill="#000000"> </text>
<text text-anchor="start" x="368.7628" y="-759.3" font-family="Arial" font-size="14.00" fill="#666666">[BASE TABLE]</text>
<polygon fill="none" stroke="#000000" points="241,-716.5 241,-746.5 469,-746.5 469,-716.5 241,-716.5"/>
<text text-anchor="start" x="248" y="-727.9" font-family="Arial" font-size="14.00" fill="#000000">room_id </text>
<text text-anchor="start" x="302.4488" y="-727.9" font-family="Arial" font-size="14.00" fill="#666666">[bigint]</text>
<polygon fill="none" stroke="#000000" points="241,-686.5 241,-716.5 469,-716.5 469,-686.5 241,-686.5"/>
<text text-anchor="start" x="248" y="-697.9" font-family="Arial" font-size="14.00" fill="#000000">member_id </text>
<text text-anchor="start" x="321.892" y="-697.9" font-family="Arial" font-size="14.00" fill="#666666">[bigint]</text>
<polygon fill="none" stroke="#000000" points="241,-656.5 241,-686.5 469,-686.5 469,-656.5 241,-656.5"/>
<text text-anchor="start" x="248" y="-667.9" font-family="Arial" font-size="14.00" fill="#000000">live_difficulty </text>
<text text-anchor="start" x="331.2258" y="-667.9" font-family="Arial" font-size="14.00" fill="#666666">[tinyint]</text>
<polygon fill="none" stroke="#000000" points="241,-626.5 241,-656.5 469,-656.5 469,-626.5 241,-626.5"/>
<text text-anchor="start" x="248" y="-637.9" font-family="Arial" font-size="14.00" fill="#000000">judge_count_list </text>
<text text-anchor="start" x="353.035" y="-637.9" font-family="Arial" font-size="14.00" fill="#666666">[varchar(50)]</text>
<polygon fill="none" stroke="#000000" points="241,-596.5 241,-626.5 469,-626.5 469,-596.5 241,-596.5"/>
<text text-anchor="start" x="248" y="-607.9" font-family="Arial" font-size="14.00" fill="#000000">score </text>
<text text-anchor="start" x="286.1164" y="-607.9" font-family="Arial" font-size="14.00" fill="#666666">[int]</text>
</g>
<!-- room_member&#45;&gt;room -->
<g id="edge2" class="edge">
<title>room_member:room_id&#45;&gt;room:id</title>
<path fill="none" stroke="#000000" d="M230.6256,-730.7638C165.1193,-720.9001 196.0476,-614.2741 241,-554 274.5435,-509.0235 328.4565,-562.9765 362,-518 386.8437,-484.6885 403.5556,-424.5 362,-424.5"/>
<polygon fill="#000000" stroke="#000000" points="231.0251,-730.7921 240.6814,-735.9887 236.0125,-731.146 241,-731.5 241,-731.5 241,-731.5 236.0125,-731.146 241.3186,-727.0113 231.0251,-730.7921 231.0251,-730.7921"/>
<text text-anchor="start" x="7.116" y="-741.5" font-family="Arial" font-size="10.00" fill="#000000">FOREIGN KEY (room_id) REFERENCES room (id)</text>
</g>
<!-- room_member&#45;&gt;user -->
<g id="edge3" class="edge">
<title>room_member:member_id&#45;&gt;user:id</title>
<path fill="none" stroke="#000000" d="M479.0944,-700.1922C590.0594,-670.5654 547.9517,-147.5 428,-147.5"/>
<polygon fill="#000000" stroke="#000000" points="478.9171,-700.2151 468.4218,-697.0373 473.9586,-700.8575 469,-701.5 469,-701.5 469,-701.5 473.9586,-700.8575 469.5782,-705.9627 478.9171,-700.2151 478.9171,-700.2151"/>
<text text-anchor="start" x="475.8365" y="-711.5" font-family="Arial" font-size="10.00" fill="#000000">FOREIGN KEY (member_id) REFERENCES user (id)</text>
</g>
</g>
</svg>
