<?xml version="1.0" encoding="UTF-8" standalone="no"?>
<!DOCTYPE svg PUBLIC "-//W3C//DTD SVG 1.1//EN"
 "http://www.w3.org/Graphics/SVG/1.1/DTD/svg11.dtd">
<!-- Generated by graphviz version 2.40.1 (20161225.0304)
 -->
<!-- Title: user Pages: 1 -->
<svg width="625pt" height="562pt"
 viewBox="0.00 0.00 625.00 562.00" xmlns="http://www.w3.org/2000/svg" xmlns:xlink="http://www.w3.org/1999/xlink">
<g id="graph0" class="graph" transform="scale(1 1) rotate(0) translate(4 558)">
<title>user</title>
<polygon fill="#ffffff" stroke="transparent" points="-4,4 -4,-558 621,-558 621,4 -4,4"/>
<!-- user -->
<g id="node1" class="node">
<title>user</title>
<polygon fill="#efefef" stroke="transparent" points="235,-165.5 235,-200.5 381,-200.5 381,-165.5 235,-165.5"/>
<polygon fill="none" stroke="#000000" points="235,-165.5 235,-200.5 381,-200.5 381,-165.5 235,-165.5"/>
<text text-anchor="start" x="241.8708" y="-178.3" font-family="Arial Bold" font-size="18.00" fill="#000000">user</text>
<text text-anchor="start" x="276.8754" y="-178.3" font-family="Arial" font-size="14.00" fill="#000000"> </text>
<text text-anchor="start" x="280.766" y="-178.3" font-family="Arial" font-size="14.00" fill="#666666">[BASE TABLE]</text>
<polygon fill="none" stroke="#000000" points="235,-135.5 235,-165.5 381,-165.5 381,-135.5 235,-135.5"/>
<text text-anchor="start" x="242" y="-146.9" font-family="Arial" font-size="14.00" fill="#000000">id </text>
<text text-anchor="start" x="256.7798" y="-146.9" font-family="Arial" font-size="14.00" fill="#666666">[bigint]</text>
<polygon fill="none" stroke="#000000" points="235,-105.5 235,-135.5 381,-135.5 381,-105.5 235,-105.5"/>
<text text-anchor="start" x="242" y="-116.9" font-family="Arial" font-size="14.00" fill="#000000">name </text>
<text text-anchor="start" x="280.899" y="-116.9" font-family="Arial" font-size="14.00" fill="#666666">[varchar(255)]</text>
<polygon fill="none" stroke="#000000" points="235,-75.5 235,-105.5 381,-105.5 381,-75.5 235,-75.5"/>
<text text-anchor="start" x="242" y="-86.9" font-family="Arial" font-size="14.00" fill="#000000">token </text>
<text text-anchor="start" x="280.129" y="-86.9" font-family="Arial" font-size="14.00" fill="#666666">[char(36)]</text>
<polygon fill="none" stroke="#000000" points="235,-45.5 235,-75.5 381,-75.5 381,-45.5 235,-45.5"/>
<text text-anchor="start" x="242" y="-56.9" font-family="Arial" font-size="14.00" fill="#000000">leader_card_id </text>
<text text-anchor="start" x="338.4684" y="-56.9" font-family="Arial" font-size="14.00" fill="#666666">[int]</text>
<polygon fill="none" stroke="#000000" stroke-width="3" points="233.5,-44.5 233.5,-202.5 382.5,-202.5 382.5,-44.5 233.5,-44.5"/>
</g>
<!-- room -->
<g id="node2" class="node">
<title>room</title>
<polygon fill="#efefef" stroke="transparent" points="71,-460.5 71,-495.5 242,-495.5 242,-460.5 71,-460.5"/>
<polygon fill="none" stroke="#000000" points="71,-460.5 71,-495.5 242,-495.5 242,-460.5 71,-460.5"/>
<text text-anchor="start" x="87.3747" y="-473.3" font-family="Arial Bold" font-size="18.00" fill="#000000">room</text>
<text text-anchor="start" x="128.3715" y="-473.3" font-family="Arial" font-size="14.00" fill="#000000"> </text>
<text text-anchor="start" x="132.2621" y="-473.3" font-family="Arial" font-size="14.00" fill="#666666">[BASE TABLE]</text>
<polygon fill="none" stroke="#000000" points="71,-430.5 71,-460.5 242,-460.5 242,-430.5 71,-430.5"/>
<text text-anchor="start" x="78" y="-441.9" font-family="Arial" font-size="14.00" fill="#000000">id </text>
<text text-anchor="start" x="92.7798" y="-441.9" font-family="Arial" font-size="14.00" fill="#666666">[bigint]</text>
<polygon fill="none" stroke="#000000" points="71,-400.5 71,-430.5 242,-430.5 242,-400.5 71,-400.5"/>
<text text-anchor="start" x="78" y="-411.9" font-family="Arial" font-size="14.00" fill="#000000">live_id </text>
<text text-anchor="start" x="121.5582" y="-411.9" font-family="Arial" font-size="14.00" fill="#666666">[int]</text>
<polygon fill="none" stroke="#000000" points="71,-370.5 71,-400.5 242,-400.5 242,-370.5 71,-370.5"/>
<text text-anchor="start" x="78" y="-381.9" font-family="Arial" font-size="14.00" fill="#000000">owner_id </text>
<text text-anchor="start" x="138.6774" y="-381.9" font-family="Arial" font-size="14.00" fill="#666666">[bigint]</text>
<polygon fill="none" stroke="#000000" points="71,-340.5 71,-370.5 242,-370.5 242,-340.5 71,-340.5"/>
<text text-anchor="start" x="77.5421" y="-351.9" font-family="Arial" font-size="14.00" fill="#000000">wait_room_status </text>
<text text-anchor="start" x="191.1171" y="-351.9" font-family="Arial" font-size="14.00" fill="#666666">[tinyint]</text>
</g>
<!-- room&#45;&gt;user -->
<g id="edge1" class="edge">
<title>room:owner_id&#45;&gt;user:id</title>
<path fill="none" stroke="#000000" d="M252.3415,-384.5532C330.9022,-368.3822 134.3868,-150.5 235,-150.5"/>
<polygon fill="#000000" stroke="#000000" points="251.9583,-384.5882 241.5897,-381.0187 246.9792,-385.0441 242,-385.5 242,-385.5 242,-385.5 246.9792,-385.0441 242.4103,-389.9813 251.9583,-384.5882 251.9583,-384.5882"/>
<text text-anchor="start" x="6.556" y="-395.5" font-family="Arial" font-size="10.00" fill="#000000">FOREIGN KEY (owner_id) REFERENCES user (id)</text>
</g>
<!-- room_member -->
<g id="node3" class="node">
<title>room_member</title>
<polygon fill="#efefef" stroke="transparent" points="346,-475.5 346,-510.5 574,-510.5 574,-475.5 346,-475.5"/>
<polygon fill="none" stroke="#000000" points="346,-475.5 346,-510.5 574,-510.5 574,-475.5 346,-475.5"/>
<text text-anchor="start" x="352.874" y="-488.3" font-family="Arial Bold" font-size="18.00" fill="#000000">room_member</text>
<text text-anchor="start" x="469.8722" y="-488.3" font-family="Arial" font-size="14.00" fill="#000000"> </text>
<text text-anchor="start" x="473.7628" y="-488.3" font-family="Arial" font-size="14.00" fill="#666666">[BASE TABLE]</text>
<polygon fill="none" stroke="#000000" points="346,-445.5 346,-475.5 574,-475.5 574,-445.5 346,-445.5"/>
<text text-anchor="start" x="353" y="-456.9" font-family="Arial" font-size="14.00" fill="#000000">room_id </text>
<text text-anchor="start" x="407.4488" y="-456.9" font-family="Arial" font-size="14.00" fill="#666666">[bigint]</text>
<polygon fill="none" stroke="#000000" points="346,-415.5 346,-445.5 574,-445.5 574,-415.5 346,-415.5"/>
<text text-anchor="start" x="353" y="-426.9" font-family="Arial" font-size="14.00" fill="#000000">member_id </text>
<text text-anchor="start" x="426.892" y="-426.9" font-family="Arial" font-size="14.00" fill="#666666">[bigint]</text>
<polygon fill="none" stroke="#000000" points="346,-385.5 346,-415.5 574,-415.5 574,-385.5 346,-385.5"/>
<text text-anchor="start" x="353" y="-396.9" font-family="Arial" font-size="14.00" fill="#000000">live_difficulty </text>
<text text-anchor="start" x="436.2258" y="-396.9" font-family="Arial" font-size="14.00" fill="#666666">[tinyint]</text>
<polygon fill="none" stroke="#000000" points="346,-355.5 346,-385.5 574,-385.5 574,-355.5 346,-355.5"/>
<text text-anchor="start" x="353" y="-366.9" font-family="Arial" font-size="14.00" fill="#000000">judge_count_list </text>
<text text-anchor="start" x="458.035" y="-366.9" font-family="Arial" font-size="14.00" fill="#666666">[varchar(20)]</text>
<polygon fill="none" stroke="#000000" points="346,-325.5 346,-355.5 574,-355.5 574,-325.5 346,-325.5"/>
<text text-anchor="start" x="353" y="-336.9" font-family="Arial" font-size="14.00" fill="#000000">score </text>
<text text-anchor="start" x="391.1164" y="-336.9" font-family="Arial" font-size="14.00" fill="#666666">[int]</text>
</g>
<!-- room_member&#45;&gt;user -->
<g id="edge2" class="edge">
<title>room_member:member_id&#45;&gt;user:id</title>
<path fill="none" stroke="#000000" d="M335.8629,-429.6855C285.0251,-420.7553 322.7368,-340.3002 346,-283 354.3943,-262.3237 372.6057,-267.6763 381,-247 397.1334,-207.2612 423.8889,-150.5 381,-150.5"/>
<polygon fill="#000000" stroke="#000000" points="336.0321,-429.699 345.6395,-434.9855 341.0161,-430.0995 346,-430.5 346,-430.5 346,-430.5 341.0161,-430.0995 346.3605,-426.0145 336.0321,-429.699 336.0321,-429.699"/>
<text text-anchor="start" x="352.8365" y="-440.5" font-family="Arial" font-size="10.00" fill="#000000">FOREIGN KEY (member_id) REFERENCES user (id)</text>
</g>
</g>
</svg>
